<svg xmlns="http://www.w3.org/2000/svg" xmlns:xlink="http://www.w3.org/1999/xlink" width="512" height="512" viewBox="0 0 512 512"><defs><filter id="a" x="8.827" y="100.91" width="482.958" height="322.59" filterUnits="userSpaceOnUse"><feOffset dx="20" dy="30" input="SourceAlpha"/><feGaussianBlur result="b"/><feFlood flood-color="#ffde05"/><feComposite operator="in" in2="b"/><feComposite in="SourceGraphic"/></filter></defs><g transform="translate(-177 -162)"><rect width="512" height="512" transform="translate(177 162)" fill="#ff0f77"/><g transform="matrix(1, 0, 0, 1, 177, 162)" filter="url(#a)"><path d="M142.559-284.59,184.922,0H109.16l-3.691-51.152H78.926L74.531,0H-2.109L35.508-284.59ZM103.359-101.6q-5.625-48.34-11.25-119.355Q80.859-139.395,78.047-101.6ZM197.578-284.59h74.531q30.234,0,46.494,4.746t24.434,13.711a47.076,47.076,0,0,1,11.074,21.709q2.9,12.744,2.9,39.463v24.785q0,27.246-5.625,39.727t-20.654,19.16q-15.029,6.68-39.287,6.68H271.582V0h-74Zm74,48.691v72.422q3.164.176,5.449.176,10.2,0,14.15-5.01t3.955-20.83V-212.52q0-14.59-4.57-18.984T271.582-235.9Zm180.7-48.691V0h-74V-284.59Z" transform="translate(15.5 389.5)" fill="#fff" stroke="#000" stroke-width="8"/></g></g></svg>