<svg xmlns="http://www.w3.org/2000/svg" width="155.4" height="14.64" viewBox="0 0 155.4 14.64">
  <path id="パス_1" data-name="パス 1" d="M6.36.32A14.687,14.687,0,0,1,2.97-.07,9.088,9.088,0,0,1,.26-1.12L1.78-4.56a9.692,9.692,0,0,0,2.24.93,8.755,8.755,0,0,0,2.38.35,3.689,3.689,0,0,0,1.4-.19.61.61,0,0,0,.42-.57q0-.44-.55-.66a11.828,11.828,0,0,0-1.81-.48,20.526,20.526,0,0,1-2.7-.73A4.6,4.6,0,0,1,1.28-7.19,3.471,3.471,0,0,1,.48-9.6,4.152,4.152,0,0,1,1.22-12a4.889,4.889,0,0,1,2.21-1.7A9.179,9.179,0,0,1,7-14.32a12.962,12.962,0,0,1,2.83.31,8.865,8.865,0,0,1,2.45.91L10.86-9.68a8.68,8.68,0,0,0-3.9-1.04q-1.82,0-1.82.88,0,.42.54.63a11.435,11.435,0,0,0,1.78.45,18.3,18.3,0,0,1,2.7.69A4.7,4.7,0,0,1,12.07-6.8a3.407,3.407,0,0,1,.81,2.4,4.106,4.106,0,0,1-.74,2.39A4.981,4.981,0,0,1,9.93-.31,9.05,9.05,0,0,1,6.36.32ZM23.82-2.44H18.5L17.56,0h-4.8l6.12-14h4.64L29.64,0H24.76Zm-1.3-3.4L21.16-9.36,19.8-5.84ZM42.9,0l-.04-6.38L39.82-1.26H37.74L34.7-6.16V0H30.4V-14h3.88l4.56,7.46L43.28-14h3.88L47.2,0ZM56.22-14a8.264,8.264,0,0,1,3.38.64,4.981,4.981,0,0,1,2.22,1.84,5.022,5.022,0,0,1,.78,2.8,5.022,5.022,0,0,1-.78,2.8A4.981,4.981,0,0,1,59.6-4.08a8.264,8.264,0,0,1-3.38.64H54.2V0H49.48V-14Zm-.3,6.92a2.1,2.1,0,0,0,1.44-.43,1.54,1.54,0,0,0,.48-1.21,1.54,1.54,0,0,0-.48-1.21,2.1,2.1,0,0,0-1.44-.43H54.2v3.28ZM64.14-14h4.72V-3.66h6.32V0H64.14ZM88.12-3.56V0H76.48V-14H87.86v3.56H81.12V-8.8h5.92v3.4H81.12v1.84ZM95.94-14h4.72V-3.66h6.32V0H95.94ZM115.42.32a8.638,8.638,0,0,1-4.06-.94,7.061,7.061,0,0,1-2.82-2.61A7.088,7.088,0,0,1,107.52-7a7.088,7.088,0,0,1,1.02-3.77,7.061,7.061,0,0,1,2.82-2.61,8.638,8.638,0,0,1,4.06-.94,8.638,8.638,0,0,1,4.06.94,7.061,7.061,0,0,1,2.82,2.61A7.088,7.088,0,0,1,123.32-7a7.088,7.088,0,0,1-1.02,3.77,7.061,7.061,0,0,1-2.82,2.61A8.638,8.638,0,0,1,115.42.32Zm0-3.82a3.009,3.009,0,0,0,1.59-.43,3.079,3.079,0,0,0,1.13-1.22A3.885,3.885,0,0,0,118.56-7a3.885,3.885,0,0,0-.42-1.85,3.079,3.079,0,0,0-1.13-1.22,3.009,3.009,0,0,0-1.59-.43,3.009,3.009,0,0,0-1.59.43,3.079,3.079,0,0,0-1.13,1.22A3.885,3.885,0,0,0,112.28-7a3.885,3.885,0,0,0,.42,1.85,3.079,3.079,0,0,0,1.13,1.22A3.009,3.009,0,0,0,115.42-3.5ZM134.3-7.38h4.1v5.92a9.521,9.521,0,0,1-2.88,1.32,11.889,11.889,0,0,1-3.22.46,8.55,8.55,0,0,1-4.02-.93,6.953,6.953,0,0,1-2.79-2.6A7.178,7.178,0,0,1,124.48-7a7.178,7.178,0,0,1,1.01-3.79,6.907,6.907,0,0,1,2.82-2.6,8.819,8.819,0,0,1,4.09-.93,9.385,9.385,0,0,1,3.69.69,6.931,6.931,0,0,1,2.71,2.01l-3.02,2.66a4.012,4.012,0,0,0-3.14-1.54,3.311,3.311,0,0,0-2.48.94A3.5,3.5,0,0,0,129.24-7a3.54,3.54,0,0,0,.91,2.54,3.191,3.191,0,0,0,2.43.96,4.447,4.447,0,0,0,1.72-.34ZM147.76.32a8.638,8.638,0,0,1-4.06-.94,7.06,7.06,0,0,1-2.82-2.61A7.088,7.088,0,0,1,139.86-7a7.088,7.088,0,0,1,1.02-3.77,7.06,7.06,0,0,1,2.82-2.61,8.638,8.638,0,0,1,4.06-.94,8.638,8.638,0,0,1,4.06.94,7.061,7.061,0,0,1,2.82,2.61A7.088,7.088,0,0,1,155.66-7a7.088,7.088,0,0,1-1.02,3.77,7.061,7.061,0,0,1-2.82,2.61A8.638,8.638,0,0,1,147.76.32Zm0-3.82a3.009,3.009,0,0,0,1.59-.43,3.079,3.079,0,0,0,1.13-1.22A3.885,3.885,0,0,0,150.9-7a3.885,3.885,0,0,0-.42-1.85,3.079,3.079,0,0,0-1.13-1.22,3.009,3.009,0,0,0-1.59-.43,3.009,3.009,0,0,0-1.59.43,3.079,3.079,0,0,0-1.13,1.22A3.885,3.885,0,0,0,144.62-7a3.885,3.885,0,0,0,.42,1.85,3.079,3.079,0,0,0,1.13,1.22A3.009,3.009,0,0,0,147.76-3.5Z" transform="translate(-0.26 14.32)" fill="#707070"/>
</svg>
